<?xml version="1.0" encoding="UTF-8" standalone="no"?>
<!-- Created with Inkscape (http://www.inkscape.org/) -->

<svg
   xmlns:dc="http://purl.org/dc/elements/1.1/"
   xmlns:cc="http://creativecommons.org/ns#"
   xmlns:rdf="http://www.w3.org/1999/02/22-rdf-syntax-ns#"
   xmlns:svg="http://www.w3.org/2000/svg"
   xmlns="http://www.w3.org/2000/svg"
   xmlns:sodipodi="http://sodipodi.sourceforge.net/DTD/sodipodi-0.dtd"
   xmlns:inkscape="http://www.inkscape.org/namespaces/inkscape"
   id="svg2"
   version="1.1"
   inkscape:version="0.91 r13725"
   xml:space="preserve"
   width="450"
   height="500"
   viewBox="0 0 450 500"
   sodipodi:docname="tabor_logo.svg"><metadata
     id="metadata8"><rdf:RDF><cc:Work
         rdf:about=""><dc:format>image/svg+xml</dc:format><dc:type
           rdf:resource="http://purl.org/dc/dcmitype/StillImage" /><dc:title></dc:title></cc:Work></rdf:RDF></metadata><defs
     id="defs6"><clipPath
       clipPathUnits="userSpaceOnUse"
       id="clipPath16"><path
         d="m 0,566.929 566.929,0 L 566.929,0 0,0 0,566.929 Z"
         id="path18"
         inkscape:connector-curvature="0" /></clipPath></defs><sodipodi:namedview
     pagecolor="#ffffff"
     bordercolor="#666666"
     borderopacity="1"
     objecttolerance="10"
     gridtolerance="10"
     guidetolerance="10"
     inkscape:pageopacity="0"
     inkscape:pageshadow="2"
     inkscape:window-width="1280"
     inkscape:window-height="772"
     id="namedview4"
     showgrid="false"
     inkscape:zoom="0.47096466"
     inkscape:cx="353.472"
     inkscape:cy="327.37064"
     inkscape:window-x="0"
     inkscape:window-y="0"
     inkscape:window-maximized="1"
     inkscape:current-layer="g10" /><g
     id="g10"
     inkscape:groupmode="layer"
     inkscape:label="pirati-tabor_logo_FINAL"
     transform="matrix(1.25,0,0,-1.25,0,500)"><g
       clip-path="url(#clipPath16)"
       id="g14"
       transform="matrix(1.1397274,0,0,1.1558841,-143.07203,-127.6526)"><g
         transform="translate(396.7448,221.3772)"
         id="g20"><path
           inkscape:connector-curvature="0"
           id="path22"
           style="fill:#231f20;fill-opacity:1;fill-rule:nonzero;stroke:none"
           d="m 0,0 c -27.414,-31.806 -67.996,-51.94 -113.28,-51.94 -45.284,0 -85.866,20.134 -113.281,51.94 l -44.652,-38.575 c 3.35,-3.879 6.854,-7.647 10.506,-11.3 19.129,-19.128 41.419,-34.153 66.254,-44.657 25.742,-10.888 53.053,-16.408 81.173,-16.408 28.12,0 55.43,5.52 81.173,16.408 24.834,10.504 47.126,25.529 66.253,44.657 3.653,3.653 7.157,7.421 10.506,11.3 L 0,0 Z" /></g><g
         transform="translate(229.8204,397.3499)"
         id="g24"><path
           inkscape:connector-curvature="0"
           id="path26"
           style="fill:#231f20;fill-opacity:1;fill-rule:evenodd;stroke:none"
           d="m 0,0 c -4.287,-1.542 -9.922,-2.608 -11.648,-6.48 l 11.955,0.892 -0.09,-114.766 c -0.9,-6.411 -3.975,-10.23 -4.252,-19.229 -0.331,-10.711 3.507,-31.307 8.272,-38.441 -1.234,20.999 -3.674,29.77 8.137,45.393 7.785,10.298 22.744,14.365 39.969,17.799 24.695,4.923 55.473,8.268 76.019,23.427 16.498,12.172 17.002,35.05 10.018,54.066 C 120.707,10.784 56.818,11.113 12.524,3.148 L 11.751,21.7 0.964,21.806 C 0.869,18.148 1.806,2.852 0,0 m 12.389,-7.914 c 24.463,-4.515 41.844,-23.425 40.201,-50.418 -0.873,-14.336 -6.346,-24.956 -13.678,-31.44 -5.736,-5.074 -18.388,-14.486 -26.526,-18.283 l 0.003,100.141 z" /></g><g
         transform="translate(146.7413,304.5598)"
         id="g28"><path
           inkscape:connector-curvature="0"
           id="path30"
           style="fill:#231f20;fill-opacity:1;fill-rule:evenodd;stroke:none"
           d="m 0,0 c 8.136,-75.913 75.424,-129.861 150.834,-122.527 70.708,6.877 131.273,70.392 122.567,150.662 -2.071,19.098 -8.09,37.81 -16.197,52.214 -10.075,17.898 -16.842,24.715 -30.598,37.949 -10.734,10.328 -28.557,19.834 -43.275,25.3 C 90.267,178.156 -10.759,100.386 0,0 m 120.397,137.267 c 39.617,5.819 72.855,-8.708 95.496,-27.135 C 235.812,93.921 255.263,66.505 259.912,30.5 269.394,-42.952 216.97,-100.556 154.513,-108.927 81.069,-118.771 21.305,-65.629 13.5,-2.855 c -4.784,38.471 8.467,73.772 27.162,95.584 17.526,20.449 41.002,38.849 79.735,44.538" /></g><g
         transform="translate(166.2853,181.9983)"
         id="g32"><path
           inkscape:connector-curvature="0"
           id="path34"
           style="fill:#ffffff;fill-opacity:1;fill-rule:nonzero;stroke:none"
           d="m 0,0 c 0.32,-0.367 0.734,-0.762 1.24,-1.184 1.263,-1.055 2.479,-1.576 3.647,-1.56 1.168,0.015 2.198,0.556 3.091,1.626 C 9.683,0.924 9.223,3.041 6.598,5.233 6.17,5.591 5.692,5.907 5.164,6.184 L 0,0 Z m -3.532,-4.229 -5.553,-6.651 -5.687,4.749 17.658,21.148 c 2.246,-1.381 4.507,-3.022 6.782,-4.921 6.611,-5.521 7.928,-10.664 3.95,-15.428 -2.16,-2.586 -4.54,-3.925 -7.139,-4.014 -2.6,-0.09 -5.329,1.059 -8.188,3.446 -0.758,0.632 -1.366,1.19 -1.823,1.671" /></g><g
         transform="translate(172.8185,159.0354)"
         id="g36"><path
           inkscape:connector-curvature="0"
           id="path38"
           style="fill:#ffffff;fill-opacity:1;fill-rule:nonzero;stroke:none"
           d="M 0,0 15.313,23.131 22.284,18.517 6.971,-4.614 0,0 Z" /></g><g
         transform="translate(199.9044,160.3548)"
         id="g40"><path
           inkscape:connector-curvature="0"
           id="path42"
           style="fill:#ffffff;fill-opacity:1;fill-rule:nonzero;stroke:none"
           d="M 0,0 1.864,-0.946 C 3.016,-1.531 4.071,-1.705 5.03,-1.468 5.988,-1.229 6.72,-0.614 7.225,0.38 8.315,2.525 7.618,4.229 5.133,5.491 4.41,5.858 3.76,6.117 3.184,6.269 L 0,0 Z m -2.495,-4.912 -4.388,-8.64 -6.607,3.356 12.476,24.563 C 2.094,13.215 5.117,11.893 8.053,10.401 14.829,6.96 16.927,2.698 14.346,-2.385 13.623,-3.808 12.511,-4.905 11.011,-5.678 9.51,-6.449 7.928,-6.74 6.264,-6.548 L 6.229,-6.616 c 0.483,-0.729 0.798,-1.506 0.946,-2.334 0.147,-0.828 0.144,-1.899 -0.012,-3.212 l -1.002,-8.015 -6.945,3.528 1.168,7.503 c 0.153,0.917 0.124,1.643 -0.088,2.176 -0.212,0.534 -0.634,0.962 -1.266,1.283 l -1.525,0.775 z" /></g><g
         transform="translate(233.1412,162.3997)"
         id="g44"><path
           inkscape:connector-curvature="0"
           id="path46"
           style="fill:#ffffff;fill-opacity:1;fill-rule:nonzero;stroke:none"
           d="M 0,0 -5.771,1.914 -0.012,7.21 7.924,4.58 0,0 Z m -9.694,-16.803 4.401,-1.459 1.064,10.456 -0.072,0.025 -5.393,-9.022 z m -2.984,-5.015 -2.792,-4.679 -7.503,2.487 17.026,23.58 7.574,-2.511 -0.433,-29.081 -7.647,2.535 0.556,5.421 -6.781,2.248 z" /></g><g
         transform="translate(263.9396,153.0501)"
         id="g48"><path
           inkscape:connector-curvature="0"
           id="path50"
           style="fill:#ffffff;fill-opacity:1;fill-rule:nonzero;stroke:none"
           d="m 0,0 -1.134,-6.167 -7.026,1.292 -3.883,-21.116 -7.624,1.402 3.882,21.116 -7.026,1.292 1.134,6.166 L 0,0 Z" /></g><g
         transform="translate(265.8053,125.2942)"
         id="g52"><path
           inkscape:connector-curvature="0"
           id="path54"
           style="fill:#ffffff;fill-opacity:1;fill-rule:nonzero;stroke:none"
           d="M 0,0 1.897,27.675 10.237,27.104 8.34,-0.571 0,0 Z" /></g><g
         transform="translate(312.3639,154.4114)"
         id="g56"><path
           inkscape:connector-curvature="0"
           id="path58"
           style="fill:#ffffff;fill-opacity:1;fill-rule:nonzero;stroke:none"
           d="m 0,0 0.666,-6.234 -7.103,-0.759 2.28,-21.349 -7.708,-0.823 -2.281,21.348 -7.103,-0.759 -0.666,6.234 L 0,0 Z" /></g><g
         transform="translate(325.6002,140.4143)"
         id="g60"><path
           inkscape:connector-curvature="0"
           id="path62"
           style="fill:#ffffff;fill-opacity:1;fill-rule:nonzero;stroke:none"
           d="M 0,0 4.498,1.12 -0.193,10.525 -0.267,10.507 0,0 Z m -0.793,19.383 -5.899,-1.47 2.034,7.556 8.112,2.019 -4.247,-8.105 z m 0.953,-25.217 0.143,-5.447 -7.67,-1.91 1.778,29.03 7.743,1.928 L 17.338,-7.04 9.521,-8.986 7.093,-4.108 0.16,-5.834 Z" /></g><g
         transform="translate(357.6578,148.6565)"
         id="g64"><path
           inkscape:connector-curvature="0"
           id="path66"
           style="fill:#ffffff;fill-opacity:1;fill-rule:nonzero;stroke:none"
           d="m 0,0 c -0.721,1.758 -2.371,2.108 -4.948,1.051 l -1.758,-0.722 2.308,-5.625 c 0.586,0.104 1.137,0.262 1.653,0.474 1.406,0.576 2.326,1.255 2.76,2.035 C 0.447,-2.008 0.442,-1.078 0,0 m -9.235,10.998 c -0.516,-0.212 -1.019,-0.487 -1.51,-0.825 l 2.019,-4.922 1.055,0.433 c 2.695,1.105 3.683,2.538 2.961,4.295 -0.673,1.64 -2.182,1.98 -4.525,1.019 M 6.793,1.965 C 7.879,-0.684 7.818,-2.988 6.61,-4.948 5.402,-6.909 2.887,-8.673 -0.933,-10.24 c -2.86,-1.173 -5.627,-2.104 -8.302,-2.79 l -10.384,25.312 c 2.269,1.342 4.775,2.576 7.517,3.701 7.032,2.884 11.461,2.1 13.288,-2.353 C 1.802,12.13 1.843,10.661 1.31,9.225 0.776,7.787 -0.234,6.612 -1.723,5.701 l 0.03,-0.07 C 0.207,6.137 1.938,6.038 3.499,5.338 5.061,4.636 6.158,3.512 6.793,1.965" /></g><g
         transform="translate(371.3082,161.097)"
         id="g68"><path
           inkscape:connector-curvature="0"
           id="path70"
           style="fill:#ffffff;fill-opacity:1;fill-rule:nonzero;stroke:none"
           d="M 0,0 C 2.732,-4.564 5.675,-5.903 8.826,-4.017 11.979,-2.13 12.188,1.096 9.455,5.66 6.723,10.225 3.78,11.563 0.629,9.677 -2.522,7.79 -2.732,4.564 0,0 m -8.986,6.8 c 0.742,3.396 2.874,6.149 6.395,8.257 3.521,2.108 6.954,2.686 10.298,1.736 3.345,-0.951 6.155,-3.328 8.433,-7.132 2.277,-3.804 3.044,-7.404 2.302,-10.801 -0.742,-3.396 -2.874,-6.149 -6.395,-8.256 -3.522,-2.109 -6.954,-2.688 -10.299,-1.737 -3.344,0.95 -6.154,3.328 -8.432,7.132 -2.277,3.804 -3.045,7.403 -2.302,10.801" /></g><g
         transform="translate(395.6832,179.2014)"
         id="g72"><path
           inkscape:connector-curvature="0"
           id="path74"
           style="fill:#ffffff;fill-opacity:1;fill-rule:nonzero;stroke:none"
           d="M 0,0 1.607,1.336 C 2.602,2.161 3.18,3.062 3.342,4.036 3.503,5.01 3.229,5.926 2.517,6.783 0.979,8.635 -0.862,8.67 -3.006,6.89 -3.63,6.371 -4.125,5.878 -4.492,5.408 L 0,0 Z m 3.521,-4.238 6.191,-7.454 -5.7,-4.735 -17.604,21.193 c 2.291,2.396 4.703,4.647 7.237,6.752 5.846,4.855 10.59,5.091 14.232,0.707 C 8.896,10.996 9.464,9.541 9.578,7.857 9.692,6.174 9.331,4.605 8.495,3.154 L 8.544,3.096 C 9.403,3.25 10.242,3.23 11.062,3.038 11.88,2.845 12.861,2.417 14.005,1.754 l 6.961,-4.099 -5.992,-4.976 -6.426,4.048 C 7.767,-2.77 7.09,-2.509 6.516,-2.491 5.941,-2.475 5.381,-2.692 4.836,-3.146 L 3.521,-4.238 Z" /></g></g></g></svg>