<?xml version="1.0" encoding="UTF-8" standalone="no"?>
<!-- Created with Inkscape (http://www.inkscape.org/) -->

<svg
   xmlns:dc="http://purl.org/dc/elements/1.1/"
   xmlns:cc="http://creativecommons.org/ns#"
   xmlns:rdf="http://www.w3.org/1999/02/22-rdf-syntax-ns#"
   xmlns:svg="http://www.w3.org/2000/svg"
   xmlns="http://www.w3.org/2000/svg"
   xmlns:xlink="http://www.w3.org/1999/xlink"
   xmlns:sodipodi="http://sodipodi.sourceforge.net/DTD/sodipodi-0.dtd"
   xmlns:inkscape="http://www.inkscape.org/namespaces/inkscape"
   width="744.09448819"
   height="1052.3622047"
   id="svg2"
   version="1.1"
   inkscape:version="0.48.4 r9939"
   sodipodi:docname="jinak.svg">
  <defs
     id="defs4">
    <inkscape:perspective
       sodipodi:type="inkscape:persp3d"
       inkscape:vp_x="0 : 526.18109 : 1"
       inkscape:vp_y="0 : 1000 : 0"
       inkscape:vp_z="744.09448 : 526.18109 : 1"
       inkscape:persp3d-origin="372.04724 : 350.78739 : 1"
       id="perspective10" />
    <inkscape:perspective
       id="perspective2975"
       inkscape:persp3d-origin="0.5 : 0.33333333 : 1"
       inkscape:vp_z="1 : 0.5 : 1"
       inkscape:vp_y="0 : 1000 : 0"
       inkscape:vp_x="0 : 0.5 : 1"
       sodipodi:type="inkscape:persp3d" />
    <inkscape:perspective
       id="perspective4508"
       inkscape:persp3d-origin="378.36749 : 100.36866 : 1"
       inkscape:vp_z="756.73499 : 150.55299 : 1"
       inkscape:vp_y="0 : 1000 : 0"
       inkscape:vp_x="0 : 150.55299 : 1"
       sodipodi:type="inkscape:persp3d" />
    <defs
       id="defs4440">
      <path
         d="M 85.39,10.559 C 51.413,24.153 24.291,51.237 10.64,85.186 v 100.092 c 13.595,33.809 40.551,60.813 74.333,74.46 h 100.515 c 33.782,-13.651 60.741,-40.651 74.334,-74.463 V 85.188 c -13.65,-33.954 -40.77,-61.034 -74.75,-74.63 H 85.39 z"
         id="SVGID_5_"
         inkscape:connector-curvature="0" />
    </defs>
    <clipPath
       id="SVGID_6_">
      <use
         id="use4444"
         overflow="visible"
         xlink:href="#SVGID_5_"
         style="overflow:visible"
         x="0"
         y="0"
         width="1"
         height="1" />
    </clipPath>
  </defs>
  <sodipodi:namedview
     id="base"
     pagecolor="#ffffff"
     bordercolor="#666666"
     borderopacity="1.0"
     inkscape:pageopacity="0.0"
     inkscape:pageshadow="2"
     inkscape:zoom="1.2410176"
     inkscape:cx="175.8614"
     inkscape:cy="828.02865"
     inkscape:document-units="px"
     inkscape:current-layer="layer1"
     showgrid="false"
     inkscape:window-width="1440"
     inkscape:window-height="870"
     inkscape:window-x="0"
     inkscape:window-y="0"
     inkscape:window-maximized="1" />
  <metadata
     id="metadata7">
    <rdf:RDF>
      <cc:Work
         rdf:about="">
        <dc:format>image/svg+xml</dc:format>
        <dc:type
           rdf:resource="http://purl.org/dc/dcmitype/StillImage" />
        <dc:title></dc:title>
      </cc:Work>
    </rdf:RDF>
  </metadata>
  <g
     inkscape:label="Layer 1"
     inkscape:groupmode="layer"
     id="layer1">
    <rect
       style="fill:#ff0000;fill-opacity:1;stroke:none"
       id="rect3020"
       width="323.12192"
       height="174.85651"
       x="-9.6694841"
       y="62.851639" />
    <g
       id="g4428"
       transform="matrix(1.3160736,0,0,1.3160736,656.52606,538.70066)">
      <defs
         id="defs4430">
        <path
           inkscape:connector-curvature="0"
           id="SVGID_3_"
           d="m 1,135.231 c 0,74.134 60.097,134.23 134.231,134.23 73.695,0 133.519,-59.391 134.225,-132.919 v -2.624 C 268.75,60.392 208.926,1 135.231,1 61.097,1 1,61.099 1,135.231" />
      </defs>
      <clipPath
         id="SVGID_4_">
        <use
           height="1"
           width="1"
           y="0"
           x="0"
           style="overflow:visible"
           xlink:href="#SVGID_3_"
           overflow="visible"
           id="use4434" />
      </clipPath>
      <path
         inkscape:connector-curvature="0"
         style="fill:#ffffff"
         clip-path="url(#SVGID_4_)"
         d="m 135.23,269.463 c 74.132,0 134.225,-60.098 134.225,-134.229 C 269.455,61.098 209.362,1.002 135.23,1.002 61.098,1.002 0.998,61.098 0.998,135.233 c 0,74.132 60.101,134.23 134.232,134.23"
         id="path4436" />
    </g>
    <rect
       style="fill:#40c0ea;fill-opacity:1;stroke:#ffffff;stroke-width:3.44617844;stroke-miterlimit:4;stroke-opacity:1;stroke-dasharray:none"
       id="rect3836"
       width="200.42876"
       height="39.642651"
       x="13.615973"
       y="358.69623"
       transform="matrix(0.98954966,-0.14419245,0.14419245,0.98954966,0,0)" />
    <path
       id="path4446"
       d="m 135.232,252.802 c -64.979,0 -117.656,-52.677 -117.656,-117.656 0,-64.979 52.677,-117.656 117.656,-117.656 64.979,0 117.656,52.676 117.656,117.655 0,64.979 -52.676,117.657 -117.656,117.657"
       clip-path="url(#SVGID_6_)"
       style="fill:#ffffff"
       inkscape:connector-curvature="0"
       transform="matrix(0.53034338,0,0,0.53034338,98.287727,76.158585)" />
    <path
       transform="matrix(0.59106003,0,0,0.59106003,90.076895,67.952975)"
       style="fill:#ffffff;stroke:none"
       clip-path="url(#SVGID_6_)"
       d="m 252.88799,135.146 c 0,64.97961 -52.67638,117.65599 -117.656,117.65599 -64.979609,0 -117.655994,-52.67638 -117.655994,-117.65599 0,-64.979617 52.676385,-117.656002 117.655994,-117.656002 64.97962,0 117.656,52.676385 117.656,117.656002 z"
       id="circle3937" />
    <path
       style="fill:#000000"
       d="m 148.09375,99.65625 c -1.21636,0.0084 -1.957,0.78146 -1.625,1.84375 0.25677,0.82156 -0.46971,1.94102 -1.0625,1.625 -0.78454,-0.41818 -1.4665,-0.42429 -1.5,-0.0312 -0.0244,0.28664 -0.24898,0.3381 -1.0625,0.3125 -1.44475,-0.0452 -1.59801,0.16515 -1.75,2.15625 -0.0886,1.16079 -0.29675,2.1138 -0.6875,3.125 -0.53305,1.37942 -2.21025,3.92095 -2.96875,4.53125 -0.19376,0.1559 -0.38515,0.40265 -0.40625,0.53125 -0.0212,0.12858 0.52337,0.98669 1.1875,1.90625 1.96506,2.72088 2.99051,5.29328 3.84375,9.5625 0.13521,0.67653 0.3124,1.43928 0.375,1.6875 0.0625,0.24821 0.18605,1.25143 0.28125,2.21875 0.0952,0.96733 0.2044,2.13386 0.25,2.59375 0.099,0.99799 0.3821,1.19205 1.53125,1.09375 0.76456,-0.0654 0.884,-0.0253 0.9375,0.34375 0.073,0.50283 0.27569,0.55711 1.125,0.28125 l 0.625,-0.21875 0.0937,0.9375 c 0.0517,0.50977 0.1073,1.36806 0.125,1.90625 0.0176,0.53819 0.077,1.69367 0.125,2.59375 0.13892,2.60633 0.22145,4.37368 0.28125,6.125 0.0307,0.89722 0.0861,2.35142 0.125,3.25 0.0389,0.89859 0.0877,1.82361 0.0937,2.0625 0.006,0.23892 0.0327,0.99708 0.0625,1.65625 0.0298,0.65917 0.0595,1.38674 0.0625,1.625 0.006,0.70421 0.12385,3.57285 0.21875,5.21875 0.0483,0.84068 0.0715,2.15047 0.0625,2.90625 -0.009,0.75577 0.0217,1.4632 0.0625,1.5625 0.006,0.0141 0.0248,0.18511 0.0312,0.21875 -12.7829,10.35876 -1.4375,33.875 -1.4375,33.875 0,0 -4.24168,-12.62913 2,-22.0625 0.0245,0.70823 0.0659,1.13261 0.0937,2.03125 0.0296,0.95653 0.0858,2.11145 0.125,2.59375 0.12584,1.54565 -0.0472,1.97199 -1.03125,2.65625 -0.88116,0.6127 -0.92698,0.70652 -1.15625,2.09375 -0.21567,1.30533 -0.1801,1.51367 0.28125,2.1875 0.28002,0.409 0.90834,0.9652 1.40625,1.25 0.49792,0.28481 1.15422,0.77198 1.4375,1.09375 0.39222,0.4455 0.76376,0.64714 1.59375,0.78125 1.44831,0.23424 2.09806,-0.01 2.84375,-1.03125 0.3414,-0.46756 0.88166,-1.0471 1.1875,-1.28125 0.30585,-0.23416 0.71585,-0.64746 0.90625,-0.9375 1.0242,-1.56018 0.38994,-3.72013 -1.34375,-4.625 -0.83502,-0.43581 -1.0237,-0.65382 -1,-1.15625 0.0188,-0.39931 -0.046,-2.27679 -0.21875,-5.71875 -0.0571,-1.13951 -0.12755,-2.55673 -0.15625,-3.15625 -0.0209,-0.43606 -0.0601,-1.12882 -0.0937,-1.75 0.2889,-0.2036 0.56681,-0.39934 0.875,-0.59375 12.93826,-8.16305 55.14162,-3.11379 57.40625,-29.5 2.74571,-31.99143 -33.54108,-35.1489 -55.25,-32.3125 -0.10032,-0.20087 -0.17017,-0.38036 -0.1875,-0.5 -0.0365,-0.25211 -0.24701,-0.83039 -0.4375,-1.28125 -0.19048,-0.45086 -0.3553,-1.09814 -0.375,-1.46875 -0.0197,-0.37062 -0.16689,-0.92153 -0.34375,-1.1875 -0.27435,-0.4126 -0.48247,-0.45975 -1.375,-0.46875 C 153.08237,102.8 152.9068,102.722 153,102.15625 c 0.10702,-0.65002 -0.54251,-0.59952 -1.4375,0.125 -0.69646,0.5638 -0.85082,0.62361 -1.09375,0.34375 -0.15659,-0.18045 -0.2459,-0.64525 -0.1875,-1 0.16668,-1.01224 -0.43227,-1.709853 -1.625,-1.90625 -0.19182,-0.03159 -0.38873,-0.0637 -0.5625,-0.0625 z m -0.625,0.78125 c 0.11197,-0.0205 0.23663,-0.009 0.375,0.0312 0.73931,0.21428 0.69445,0.55233 -0.0937,0.84375 -0.5653,0.20898 -0.66405,0.20314 -0.71875,-0.0625 -0.0886,-0.42995 0.10158,-0.75092 0.4375,-0.8125 z m 0.5,1.5625 c 0.5556,-0.0652 1.18727,0.275 1.5625,0.90625 0.32052,0.53921 0.35493,0.7932 0.15625,0.875 -0.17323,0.0713 -0.24055,0.36206 -0.21875,0.75 0.0192,0.34297 0.0617,1.3868 0.0937,2.34375 0.0205,0.61064 0.037,1.3634 0.0625,2.09375 -0.52381,0.11302 -1.0057,0.22627 -1.5,0.34375 -0.0739,-0.84237 -0.11746,-1.47109 -0.21875,-2.5 -0.0477,-0.48367 -0.1107,-1.20646 -0.125,-1.625 -0.0195,-0.56412 -0.17201,-0.87217 -0.625,-1.1875 -0.59098,-0.41135 -0.60582,-0.4573 -0.21875,-0.96875 0.22022,-0.29088 0.35115,-0.51985 0.28125,-0.53125 -0.0699,-0.0115 0.0477,-0.13612 0.25,-0.28125 0.15961,-0.11448 0.3148,-0.19703 0.5,-0.21875 z m 4.21875,0.8125 0.125,1.625 c 0.0597,0.89231 0.28273,2.24665 0.5,3.03125 0.0837,0.30221 0.1272,0.58957 0.1875,0.84375 -0.87489,0.15239 -1.71544,0.33284 -2.53125,0.5 -0.0397,-0.91069 -0.0781,-2.07728 -0.125,-2.875 -0.0494,-0.84079 -0.0655,-1.5435 -0.0625,-1.5625 0.003,-0.0191 0.41037,-0.39321 0.9375,-0.8125 z m -9.28125,1.375 c 0.56318,-0.0265 1.0284,-0.0164 1.0625,0.0312 0.0341,0.0476 -0.0278,1.03973 -0.15625,2.1875 -0.19445,1.73768 -0.65892,3.34548 -1.25,4.53125 -2.64129,0.96588 -4.07753,1.91852 -3.78125,2.5625 0.59344,-0.17303 1.36333,-0.30246 2.25,-0.375 -0.0179,0.10866 -0.15889,0.2202 -0.3125,0.25 -0.1732,0.0336 0.0678,0.56297 0.625,1.375 0.49416,0.72014 1.14479,1.8913 1.4375,2.59375 0.58166,1.39593 1.36747,4.4754 1.59375,6.21875 0.37738,2.90753 0.5555,4.42131 0.5625,4.71875 0.004,0.17913 0.0429,1.01973 0.0937,1.84375 0.0508,0.82403 0.1449,1.58392 0.1875,1.6875 0.0811,0.19697 -1.20694,0.34701 -1.34375,0.15625 -0.0761,-0.1061 -0.21683,-1.2119 -0.46875,-3.71875 -0.0669,-0.66527 -0.13805,-1.34981 -0.15625,-1.53125 -0.0733,-0.72925 -0.6689,-3.4031 -1.0625,-4.78125 -0.22992,-0.80506 -0.3954,-1.56361 -0.375,-1.6875 0.0204,-0.12391 -0.044,-0.2596 -0.125,-0.3125 -0.081,-0.053 -0.33262,-0.58386 -0.59375,-1.1875 -0.68922,-1.59318 -2.26804,-4.14236 -2.78125,-4.5 -0.43232,-0.30126 -0.42376,-0.33526 0.0312,-0.84375 0.25592,-0.286 0.50955,-0.54815 0.59375,-0.59375 0.15703,-0.085 1.0452,-1.38091 1.65625,-2.4375 0.18844,-0.32584 0.54189,-1.17722 0.78125,-1.90625 0.39368,-1.19905 0.4819,-1.85542 0.5,-3.65625 0.005,-0.53454 0.0844,-0.5805 1.03125,-0.625 z m 5.53125,9.40625 c 0.44298,0.0818 0.89114,0.17913 1.34375,0.28125 0.0511,1.60751 0.12444,3.33169 0.25,5.625 0.14099,2.57367 0.184,4.93473 0.125,6.625 -0.0307,0.88708 -0.01,1.95193 0.0312,2.375 0.0408,0.42307 0.0519,1.23478 0.0312,1.78125 -0.0341,0.90479 -0.0723,0.98595 -0.53125,1.03125 -0.79349,0.0784 -0.8411,0.0556 -0.71875,-0.6875 0.0636,-0.38606 0.0652,-0.7841 0,-0.875 -0.0652,-0.0909 -0.10605,-0.39148 -0.0937,-0.65625 0.0127,-0.26478 -0.024,-1.16097 -0.0625,-2 -0.0385,-0.83904 -0.0666,-2.35935 -0.0937,-3.375 -0.0273,-1.01564 -0.0671,-2.57224 -0.0937,-3.46875 -0.0263,-0.89652 -0.0857,-2.45624 -0.0937,-3.46875 -0.009,-1.04823 -0.038,-2.09671 -0.0937,-3.1875 z m 2.25,0.5 c 1.19295,0.30265 2.38691,0.69892 3.59375,1.15625 -0.20652,0.79177 -0.37865,1.86527 -0.65625,3.5625 -0.55636,3.40104 -0.60353,4.10254 -0.5,6.28125 0.0313,0.65943 0.0393,1.47427 0.0312,1.8125 -0.008,0.33824 0.003,0.76838 0.0312,0.96875 0.028,0.20038 0.0532,1.11146 0.0312,2 -0.0222,0.88855 -0.0316,1.80583 0,2.03125 0.0507,0.36238 -0.0237,0.36335 -0.625,0.125 -1.35846,-0.53852 -1.53025,-0.73526 -1.53125,-1.59375 -4.8e-4,-0.45155 -0.0683,-1.06827 -0.125,-1.375 -0.0566,-0.30672 -0.0625,-1.26922 -0.0312,-2.15625 0.10747,-3.05126 0.0688,-6.529 -0.0937,-9.4375 -0.0205,-0.3667 -0.0765,-2.02458 -0.125,-3.375 z m 7.375,2.875 c 7.57575,4.16595 13.64489,12.17248 10.625,26.46875 -1.68426,7.97412 -9.25028,12.74547 -15.21875,16.5 -0.0454,-0.97434 -0.0944,-2.095 -0.125,-2.59375 -0.0479,-0.78112 -0.12065,-2.09894 -0.15625,-2.9375 -0.0759,-1.78673 -0.1107,-2.20883 -0.1875,-3.8125 -0.0322,-0.65944 -0.0352,-1.35349 -0.0312,-1.53125 0.004,-0.17776 -0.0487,-0.80404 -0.0937,-1.40625 -0.0449,-0.60221 -0.0655,-1.29373 -0.0625,-1.53125 0.002,-0.23752 -0.0377,-1.16108 -0.0937,-2.0625 -0.056,-0.9014 -0.156,-2.28561 -0.1875,-3.09375 -0.0316,-0.80816 -0.0847,-2.16068 -0.125,-3 -0.1095,-2.28445 -0.18625,-4.64592 -0.15625,-4.90625 0.0155,-0.1342 0.41829,-0.19005 0.9375,-0.0937 0.8385,0.15562 0.8857,0.15584 0.9375,-0.375 0.0472,-0.48395 0.15055,-0.57985 0.78125,-0.59375 0.40473,-0.009 0.82095,-0.0896 0.90625,-0.1875 0.13405,-0.15377 0.0887,-1.32475 -0.0937,-2.40625 -0.0902,-0.53478 -0.0829,-1.0342 0.125,-3.96875 0.22406,-3.1626 0.8466,-5.44766 2.21875,-8.46875 z m -9.84375,17.15625 c 0.0336,-0.0197 0.62202,0.003 1.28125,0.0312 l 1.1875,0.0312 0.0312,1.59375 c 0.0183,0.87155 0.0585,1.6273 0.0625,1.6875 0.0219,0.31418 0.14415,2.78179 0.15625,3.0625 0.008,0.17971 0.0591,1.00534 0.0937,1.84375 0.0347,0.83841 0.0961,2.41949 0.15625,3.5 0.06,1.08049 0.1394,2.99304 0.1875,4.25 0.0481,1.25697 0.1343,3.20489 0.1875,4.34375 0.089,1.90681 0.15115,3.40328 0.21875,6.5 3.3e-4,0.0149 -3.6e-4,0.0163 0,0.0312 -0.84791,0.54311 -1.63036,1.04916 -2.34375,1.5625 -0.0161,-0.49886 -0.0535,-1.05825 -0.0625,-1.53125 -0.0148,-0.77565 -0.0672,-1.62756 -0.125,-1.875 -0.0579,-0.24742 -0.14325,-1.03416 -0.15625,-1.75 -0.0384,-2.14422 -0.109,-4.46387 -0.1875,-5.96875 -0.11331,-2.17152 -0.2015,-4.72323 -0.25,-6.40625 -0.0244,-0.83669 -0.0988,-2.18608 -0.15625,-2.96875 -0.12858,-1.75318 -0.257,-4.2762 -0.25,-5 0.003,-0.29689 -0.007,-1.07107 -0.0312,-1.71875 -0.0238,-0.6477 -0.0336,-1.19895 0,-1.21875 z m 4.03125,37.34375 c 0.011,0.58573 -0.009,1.06434 -0.0312,1.1875 -0.0424,0.23093 -0.0102,0.62513 0.0625,0.875 0.0727,0.24988 0.1665,0.96731 0.1875,1.625 0.0209,0.65769 0.0618,1.84651 0.0937,2.625 0.0319,0.77849 0.0495,1.9373 0.0625,2.59375 0.0519,2.55906 -7.2e-4,2.9854 -0.375,3.0625 -0.48227,0.0994 -1.41985,-0.0799 -1.65625,-0.3125 -0.2703,-0.26601 -0.40875,-1.55644 -0.46875,-4.34375 -0.0283,-1.31318 -0.0828,-2.73296 -0.125,-3.15625 -0.0285,-0.28581 -0.0703,-1.02958 -0.0937,-1.6875 0.67506,-0.86725 1.45669,-1.68391 2.34375,-2.46875 z M 149.21875,182.5 c 0.15944,-0.002 -0.0188,0.30475 -0.46875,0.71875 -0.53392,0.49126 -0.95918,2.08381 -0.625,2.375 0.10409,0.0907 0.1619,0.33617 0.125,0.53125 -0.10992,0.58134 -0.4709,-0.71286 -0.4375,-1.5625 0.0308,-0.78258 0.4949,-1.59996 1.125,-1.96875 0.13023,-0.0762 0.2281,-0.0931 0.28125,-0.0937 z m 0.25,1 c 0.1076,0.004 0.25261,0.0626 0.46875,0.1875 0.514,0.29713 0.53391,0.36848 0.28125,1.375 -0.20461,0.81562 -0.17734,1.27746 0.0625,1.9375 l 0.3125,0.84375 L 150,187.25 c -0.9468,-0.96966 -1.32096,-2.67178 -0.78125,-3.59375 0.0675,-0.11524 0.1424,-0.15993 0.25,-0.15625 z m 4.0625,0.40625 c 0.49729,-0.10248 1.03079,0.38516 1.28125,1.15625 0.24011,0.73925 0.19899,1.28684 -0.15625,1.71875 -0.12925,0.15715 -0.31025,0.43264 -0.40625,0.625 -0.35455,0.71043 -0.77557,0.30156 -0.625,-0.625 0.0807,-0.49586 0.0124,-1.31835 -0.15625,-1.84375 -0.26488,-0.82539 -0.23824,-0.96925 0.0625,-1.03125 z M 152,184.21875 c 0.43248,0.0413 0.6334,0.39438 0.78125,1.28125 0.20279,1.21632 0.165,1.59811 -0.21875,2.0625 -0.37212,0.45033 -0.76348,0.36761 -1.15625,-0.28125 -0.87825,-1.4508 -0.85167,-2.75257 0.0625,-3 0.20235,-0.0548 0.38709,-0.0763 0.53125,-0.0625 z m -0.9375,4.4375 c 0.0485,-0.0193 0.25288,-0.018 0.625,0 0.50159,0.0241 0.91225,0.0582 0.90625,0.0937 -0.0274,0.16654 -0.69179,0.18815 -1.21875,0.0312 -0.23846,-0.071 -0.36098,-0.10573 -0.3125,-0.125 z"
       id="path3033"
       inkscape:connector-curvature="0"
       sodipodi:nodetypes="sscccssscsscccccccccccscscccccccccsccssccssccccccscscccccsccsscccccsscccccccccccsccccccccccccccccccsccccccsccccscssscccccscccccccccccccccsccscccccccccccccccccccccccscccccccccccccccccccscccccccscccsccccscccccsccccccscscscccccccscscccs" />
    <path
       transform="matrix(0.53034338,0,0,0.53034338,98.287727,76.158585)"
       style="fill:none;stroke:#000000;stroke-width:11.73789978"
       clip-path="url(#SVGID_6_)"
       d="m 252.88799,135.146 c 0,64.97961 -52.67638,117.65599 -117.656,117.65599 -64.979609,0 -117.655994,-52.67638 -117.655994,-117.65599 0,-64.979617 52.676385,-117.656002 117.655994,-117.656002 64.97962,0 117.656,52.676385 117.656,117.656002 z"
       id="circle4448" />
    <g
       id="g3946"
       transform="matrix(0.22645189,0,0,0.22645189,550.42589,246.37116)">
      <rect
         transform="matrix(0.99031231,-0.13885792,0.13885792,0.99031231,0,0)"
         y="308.45352"
         x="-2057.6685"
         height="148.77995"
         width="839.34991"
         id="rect3824"
         style="fill:#808080;fill-opacity:1;stroke:#ffffff;stroke-width:11.21307373;stroke-miterlimit:4;stroke-opacity:1;stroke-dasharray:none" />
      <text
         transform="matrix(0.99031231,-0.13885792,0.13885792,0.99031231,0,0)"
         sodipodi:linespacing="125%"
         id="text3826"
         y="414.20163"
         x="-2009.0392"
         style="font-size:103.8927536px;font-style:normal;font-variant:normal;font-weight:normal;font-stretch:normal;line-height:125%;letter-spacing:0px;word-spacing:0px;fill:#ffffff;fill-opacity:1;stroke:none;font-family:FreeSans;-inkscape-font-specification:FreeSans"
         xml:space="preserve"><tspan
           style="font-style:normal;font-variant:normal;font-weight:normal;font-stretch:normal;fill:#ffffff;font-family:Play;-inkscape-font-specification:Play"
           y="414.20163"
           x="-2009.0392"
           id="tspan3828"
           sodipodi:role="line">Pojďte k volbám</tspan></text>
    </g>
    <text
       sodipodi:linespacing="125%"
       id="text3832"
       y="386.83197"
       x="27.232332"
       style="font-size:29.0388813px;font-style:normal;font-variant:normal;font-weight:normal;font-stretch:normal;line-height:125%;letter-spacing:0px;word-spacing:0px;fill:#ffffff;fill-opacity:1;stroke:none;font-family:FreeSans;-inkscape-font-specification:FreeSans"
       xml:space="preserve"
       transform="matrix(0.98954966,-0.14419245,0.14419245,0.98954966,0,0)"><tspan
         style="font-style:normal;font-variant:normal;font-weight:normal;font-stretch:normal;fill:#ffffff;font-family:Play;-inkscape-font-specification:Play"
         y="386.83197"
         x="27.232332"
         id="tspan3834"
         sodipodi:role="line">10. a 11. října</tspan></text>
    <g
       id="g3976"
       transform="matrix(0.28648101,-0.03508124,0.03508124,0.28648101,649.97843,174.97621)">
      <rect
         transform="matrix(0.99999957,-9.259348e-4,0.02952394,0.99956407,0,0)"
         style="fill:#1a1a1a;fill-opacity:1;stroke:#ffffff;stroke-width:9.46493626;stroke-miterlimit:4;stroke-opacity:1;stroke-dasharray:none"
         id="rect3838"
         width="1075.724"
         height="102.94981"
         x="-1798.953"
         y="579.26562" />
      <text
         transform="matrix(0.99998682,-0.00513411,0.00513411,0.99998682,0,0)"
         sodipodi:linespacing="125%"
         id="text3840"
         y="644.60852"
         x="-1748.8719"
         style="font-size:77.66387939px;font-style:normal;font-variant:normal;font-weight:normal;font-stretch:normal;line-height:125%;letter-spacing:0px;word-spacing:0px;fill:#ffffff;fill-opacity:1;stroke:none;font-family:FreeSans;-inkscape-font-specification:FreeSans"
         xml:space="preserve"><tspan
           style="font-style:normal;font-variant:normal;font-weight:normal;font-stretch:normal;fill:#ffffff;font-family:Play;-inkscape-font-specification:Play"
           y="644.60852"
           x="-1748.8719"
           id="tspan3842"
           sodipodi:role="line">volte piráty na kandidátce č.1</tspan></text>
    </g>
    <g
       id="g3034"
       transform="translate(239.72263,-68.492179)">
      <path
         id="path3036"
         d="m 135.232,252.802 c -64.979,0 -117.656,-52.677 -117.656,-117.656 0,-64.979 52.677,-117.656 117.656,-117.656 64.979,0 117.656,52.676 117.656,117.655 0,64.979 -52.676,117.657 -117.656,117.657"
         clip-path="url(#SVGID_6_)"
         style="fill:#ffffff"
         inkscape:connector-curvature="0"
         transform="matrix(0.53034338,0,0,0.53034338,98.287727,76.158585)" />
      <circle
         transform="matrix(0.59106003,0,0,0.59106003,90.076895,67.952975)"
         d="m 252.88799,135.146 c 0,64.97961 -52.67638,117.65599 -117.656,117.65599 -64.979609,0 -117.655994,-52.67638 -117.655994,-117.65599 0,-64.979617 52.676385,-117.656002 117.655994,-117.656002 64.97962,0 117.656,52.676385 117.656,117.656002 z"
         style="fill:#ffffff;stroke:none"
         sodipodi:ry="117.656"
         sodipodi:rx="117.656"
         sodipodi:cy="135.146"
         sodipodi:cx="135.23199"
         clip-path="url(#SVGID_6_)"
         cx="135.23199"
         cy="135.146"
         r="117.656"
         id="circle3038" />
      <path
         style="fill:#000000"
         d="m 156.77714,186.51921 c -0.1904,0.29004 -0.59643,0.71893 -0.90228,0.95309 -0.30584,0.23415 -0.8354,0.80829 -1.1768,1.27585 -0.74569,1.02129 -1.40105,1.25639 -2.84936,1.02215 -0.82999,-0.13411 -1.21271,-0.3158 -1.60493,-0.7613 -0.28328,-0.32177 -0.92243,-0.81805 -1.42035,-1.10286 -0.49791,-0.2848 -1.13441,-0.85246 -1.41443,-1.26146 -0.46135,-0.67383 -0.48679,-0.8788 -0.27112,-2.18413 0.22927,-1.38723 0.27187,-1.46408 1.15303,-2.07678 0.98409,-0.68426 1.14679,-1.10703 1.02095,-2.65268 -0.0392,-0.4823 -0.0957,-1.65953 -0.12533,-2.61606 -0.0866,-2.79196 -0.14877,-4.44952 -0.23669,-6.31125 -0.0454,-0.95911 -0.10655,-2.38047 -0.1361,-3.15856 -0.0849,-2.23337 -0.23244,-4.39486 -0.31347,-4.59175 -0.0408,-0.0993 -0.0672,-0.79883 -0.0586,-1.5546 0.009,-0.75578 -0.024,-2.06198 -0.0723,-2.90266 -0.0949,-1.6459 -0.21871,-4.52367 -0.22499,-5.22788 -0.003,-0.23826 -0.0282,-0.97254 -0.058,-1.63171 -0.0298,-0.65917 -0.0591,-1.39396 -0.0652,-1.63288 -0.006,-0.23889 -0.0428,-1.16957 -0.0817,-2.06816 -0.0389,-0.89858 -0.0958,-2.36788 -0.12645,-3.2651 -0.0598,-1.75132 -0.13935,-3.49547 -0.27827,-6.1018 -0.048,-0.90008 -0.10153,-2.07684 -0.11914,-2.61503 -0.0177,-0.53819 -0.0743,-1.39562 -0.12601,-1.90539 l -0.0941,-0.92687 -0.64679,0.21009 c -0.84931,0.27586 -1.04816,0.22694 -1.12113,-0.27589 -0.0535,-0.36905 -0.16173,-0.40919 -0.92629,-0.34376 -1.14915,0.0983 -1.42838,-0.10289 -1.52737,-1.10088 -0.0456,-0.45989 -0.1608,-1.6276 -0.25596,-2.59493 -0.0952,-0.96732 -0.2242,-1.96186 -0.28674,-2.21007 -0.0626,-0.24822 -0.22436,-1.00481 -0.35957,-1.68134 -0.85324,-4.26922 -1.89354,-6.84943 -3.8586,-9.57031 -0.66413,-0.91956 -1.19018,-1.77714 -1.16901,-1.90572 0.0211,-0.1286 0.19702,-0.36137 0.39078,-0.51727 0.7585,-0.6103 2.42362,-3.17551 2.95667,-4.55493 0.39075,-1.0112 0.59991,-1.95885 0.68851,-3.11964 0.15199,-1.9911 0.30841,-2.18173 1.75316,-2.13649 0.81352,0.0256 1.05454,-0.0497 1.07896,-0.33634 0.0335,-0.39304 0.70149,-0.37248 1.48603,0.0457 0.59279,0.31602 1.33565,-0.80166 1.07888,-1.62322 -0.37943,-1.21405 0.63161,-2.055492 2.16616,-1.802815 1.19273,0.196397 1.80853,0.921775 1.64185,1.934015 -0.0584,0.35475 0.022,0.79265 0.17859,0.9731 0.24293,0.27986 0.40483,0.23091 1.10129,-0.33289 0.89499,-0.72452 1.556,-0.78705 1.44898,-0.13703 -0.0932,0.56575 0.0647,0.64828 1.26358,0.66078 0.89253,0.009 1.09338,0.0819 1.36773,0.4945 0.17686,0.26597 0.33767,0.78682 0.35734,1.15744 0.0197,0.37061 0.19159,1.04275 0.38207,1.49361 0.19049,0.45086 0.37622,1.02604 0.41274,1.27815 0.11248,0.77658 2.21412,3.58648 3.1789,4.25022 0.95272,0.65543 1.10824,1.22723 0.44015,1.61824 -0.18902,0.11063 -0.45038,0.46882 -0.58082,0.79599 -0.13046,0.32718 -0.30942,0.58296 -0.3977,0.56843 -0.13233,-0.0218 -0.53376,0.65437 -1.11123,1.87173 -1.59187,3.35579 -2.23649,5.72834 -2.47639,9.11451 -0.2079,2.93455 -0.22498,3.43858 -0.13475,3.97336 0.18249,1.0815 0.22785,2.23689 0.0938,2.39066 -0.0853,0.0979 -0.48619,0.1853 -0.89092,0.19431 -0.6307,0.0139 -0.74376,0.0971 -0.79101,0.58105 -0.0518,0.53084 -0.1086,0.55476 -0.9471,0.39914 -0.51921,-0.0963 -0.90307,-0.0692 -0.91855,0.065 -0.03,0.26033 0.0439,2.62588 0.1534,4.91033 0.0403,0.83932 0.099,2.18725 0.13055,2.99541 0.0315,0.80814 0.10326,2.20688 0.15929,3.10828 0.0561,0.90142 0.10005,1.83327 0.0977,2.07079 -0.003,0.23752 0.0327,0.92457 0.0776,1.52678 0.0451,0.60221 0.0786,1.24037 0.0745,1.41813 -0.004,0.17776 0.0181,0.86277 0.0503,1.52221 0.0768,1.60367 0.0958,2.02652 0.17168,3.81325 0.0356,0.83856 0.10396,2.16374 0.15189,2.94486 0.0479,0.7811 0.13583,2.59616 0.19539,4.03345 0.10086,2.43477 0.22465,4.91387 0.40282,8.06887 0.0407,0.72044 0.0975,1.80041 0.1263,2.39994 0.0287,0.59952 0.0992,2.02236 0.1563,3.16187 0.17275,3.44196 0.24803,5.31931 0.22923,5.71862 -0.0237,0.50243 0.17791,0.73545 1.01293,1.17126 1.73369,0.90487 2.35023,3.04699 1.32603,4.60717 z m -1.95604,-1.45147 c -0.25046,-0.77109 -0.80139,-1.26373 -1.29868,-1.16125 -0.30074,0.062 -0.30608,0.19441 -0.0412,1.0198 0.16862,0.5254 0.23948,1.34796 0.15881,1.84382 -0.15057,0.92656 0.24916,1.35053 0.60371,0.6401 0.096,-0.19236 0.2803,-0.47833 0.40955,-0.63548 0.35524,-0.43191 0.40791,-0.96774 0.1678,-1.70699 z m -3.12943,3.58517 c -0.74425,-0.0359 -0.8045,-0.0119 -0.32759,0.13012 0.52696,0.1569 1.20147,0.14514 1.22889,-0.0214 0.006,-0.0356 -0.39971,-0.0846 -0.9013,-0.1087 z m 1.08553,-3.13864 c -0.19714,-1.18249 -0.48789,-1.46078 -1.29728,-1.2417 -0.91417,0.24743 -0.94165,1.54573 -0.0634,2.99653 0.39277,0.64886 0.76777,0.74618 1.13989,0.29585 0.38375,-0.46439 0.42359,-0.83436 0.2208,-2.05068 z m -0.1428,-5.12796 c -0.013,-0.65645 -0.0505,-1.83049 -0.0824,-2.60898 -0.0319,-0.77849 -0.0752,-1.95354 -0.0961,-2.61123 -0.021,-0.65769 -0.0973,-1.40025 -0.16996,-1.65013 -0.0727,-0.24987 -0.0974,-0.64326 -0.055,-0.87419 0.0424,-0.23094 0.0214,-1.54832 -0.0466,-2.92753 -0.15994,-3.24299 -0.1694,-3.49517 -0.20699,-5.51317 -0.0174,-0.93463 -0.0643,-1.77858 -0.10414,-1.87546 -0.0399,-0.0969 -0.084,-0.7044 -0.0981,-1.35005 -0.0676,-3.09672 -0.11458,-4.59537 -0.20358,-6.50218 -0.0532,-1.13886 -0.13609,-3.09907 -0.18423,-4.35604 -0.0481,-1.25696 -0.13662,-3.16944 -0.19667,-4.24993 -0.0601,-1.08051 -0.13753,-2.65052 -0.17225,-3.48893 -0.0347,-0.83841 -0.0694,-1.67142 -0.0772,-1.85113 -0.0121,-0.28071 -0.15308,-2.74262 -0.17501,-3.0568 -0.004,-0.0602 -0.0229,-0.82249 -0.0412,-1.69404 l -0.0338,-1.58463 -1.19861,-0.0511 c -0.65923,-0.0282 -1.22608,-0.0349 -1.25965,-0.0152 -0.0336,0.0198 -0.0416,0.56594 -0.0178,1.21364 0.0241,0.64768 0.0407,1.42052 0.0376,1.71741 -0.007,0.7238 0.11649,3.26173 0.24507,5.01491 0.0574,0.78267 0.12429,2.10762 0.14867,2.94431 0.0485,1.68302 0.1572,4.25344 0.27051,6.42496 0.0785,1.50488 0.15318,3.83518 0.1916,5.9794 0.013,0.71584 0.0706,1.504 0.12846,1.75142 0.0578,0.24744 0.11717,1.0845 0.13193,1.86015 0.0341,1.79497 0.10658,3.48117 0.31416,7.29727 0.0913,1.68045 0.18143,3.83649 0.20001,4.79121 0.0188,0.95471 0.0684,2.08218 0.11057,2.50548 0.0422,0.42329 0.0998,1.84404 0.12806,3.15722 0.06,2.78731 0.1998,4.07972 0.4701,4.34573 0.2364,0.23262 1.18734,0.40894 1.66961,0.30956 0.37428,-0.0771 0.42513,-0.49289 0.37322,-3.05195 z m -2.41315,4.67077 c 0.25266,-1.00652 0.23733,-1.08296 -0.27667,-1.38009 -0.43229,-0.24987 -0.57909,-0.25489 -0.71399,-0.0244 -0.53971,0.92197 -0.17054,2.63747 0.77626,3.60713 l 0.57365,0.58749 -0.31336,-0.86227 c -0.23984,-0.66004 -0.25061,-1.1122 -0.046,-1.92782 z m -1.27843,-2.45507 c -0.6301,0.36879 -1.09313,1.17548 -1.12388,1.95806 -0.0334,0.84964 0.3332,2.13488 0.44312,1.55354 0.0369,-0.19508 -0.018,-0.42886 -0.12209,-0.51951 -0.33418,-0.29119 0.0754,-1.89569 0.60932,-2.38695 0.59995,-0.552 0.71446,-0.91004 0.19353,-0.60514 z m 4.26329,-52.73226 c 0.022,-0.88854 0.0173,-1.77948 -0.0107,-1.97986 -0.028,-0.20037 -0.0443,-0.64106 -0.0365,-0.9793 0.008,-0.33823 -0.0115,-1.15448 -0.0428,-1.81391 -0.10353,-2.17871 -0.0455,-2.89525 0.51086,-6.29629 0.54774,-3.3488 0.76181,-4.17834 1.41287,-5.47484 0.32955,-0.65626 0.31053,-0.71797 -0.62224,-2.01846 -0.5292,-0.73783 -0.94047,-1.47335 -0.91393,-1.63449 0.0265,-0.16113 -0.0465,-0.30857 -0.16235,-0.32764 -0.11582,-0.0191 -0.19567,-0.12518 -0.17745,-0.23579 0.0182,-0.11062 -0.14466,-0.84307 -0.36192,-1.62766 -0.21727,-0.7846 -0.44384,-2.15663 -0.50349,-3.04894 l -0.10842,-1.6224 -0.95843,0.76232 c -0.52713,0.41929 -0.96099,0.77794 -0.96413,0.79702 -0.003,0.019 0.0348,0.7226 0.0842,1.56339 0.10094,1.71699 0.17645,3.48744 0.26476,6.20764 0.0742,2.28427 0.16599,4.75109 0.19836,5.33166 0.16255,2.9085 0.19447,6.37146 0.087,9.42272 -0.0312,0.88703 -0.0104,1.86374 0.0462,2.17046 0.0567,0.30673 0.10348,0.92713 0.10396,1.37868 0.001,0.85849 0.19011,1.05284 1.54857,1.59136 0.60127,0.23835 0.67343,0.2221 0.6227,-0.14028 -0.0316,-0.22542 -0.0395,-1.13684 -0.0173,-2.02539 z m -3.02231,-1.36279 c -0.0408,-0.42307 -0.0486,-1.49501 -0.0179,-2.38209 0.059,-1.69027 0.0138,-4.04396 -0.12719,-6.61763 -0.13812,-2.52276 -0.22496,-4.48787 -0.27428,-6.20929 -0.0255,-0.89641 -0.0715,-2.31516 -0.10136,-3.15282 -0.0303,-0.83764 -0.0809,-2.30596 -0.11307,-3.2629 -0.032,-0.95695 -0.0743,-2.02051 -0.0935,-2.36348 -0.0218,-0.38794 0.0701,-0.66686 0.24333,-0.73815 0.19868,-0.0818 0.14978,-0.33104 -0.17074,-0.87025 -0.50031,-0.84166 -1.43472,-1.15655 -2.07316,-0.69865 -0.20233,0.14513 -0.3107,0.27328 -0.24082,0.28478 0.0699,0.0114 -0.053,0.25892 -0.27322,0.5498 -0.38707,0.51145 -0.38012,0.5429 0.21086,0.95425 0.45299,0.31533 0.6179,0.62227 0.63739,1.18639 0.0143,0.41854 0.0652,1.15672 0.11291,1.64039 0.46066,4.67958 0.62063,7.15167 0.64368,9.94695 0.008,1.01251 0.0368,2.57444 0.0631,3.47096 0.0266,0.89651 0.0702,2.461 0.0975,3.47664 0.0272,1.01565 0.0812,2.53311 0.11973,3.37215 0.0385,0.83903 0.06,1.74215 0.0473,2.00693 -0.0123,0.26477 0.031,0.55578 0.0962,0.64667 0.0652,0.0909 0.0666,0.48114 0.003,0.8672 -0.12235,0.74306 -0.0883,0.7768 0.70519,0.69836 0.45892,-0.0453 0.5073,-0.13861 0.54136,-1.0434 0.0206,-0.54647 0.004,-1.33973 -0.0368,-1.7628 z m -5.1406,1.60987 c -0.0508,-0.82402 -0.0957,-1.64479 -0.0999,-1.82392 -0.007,-0.29744 -0.19153,-1.83627 -0.56891,-4.7438 -0.22628,-1.74335 -1.01686,-4.81512 -1.59852,-6.21105 -0.29271,-0.70245 -0.93651,-1.86642 -1.43067,-2.58656 -0.5572,-0.81203 -0.79239,-1.32998 -0.61919,-1.36362 0.15361,-0.0298 0.29393,-0.14315 0.31182,-0.25181 0.0179,-0.10865 0.33043,-0.51872 0.69453,-0.91129 0.99292,-1.07055 1.79762,-3.32501 2.07656,-5.81778 0.12845,-1.14777 0.2056,-2.12581 0.17146,-2.17342 -0.0341,-0.0476 -0.52286,-0.0649 -1.08604,-0.0384 -0.94686,0.0445 -1.02443,0.0917 -1.0298,0.62624 -0.0181,1.80083 -0.1062,2.44253 -0.49988,3.64158 -0.23936,0.72903 -0.58939,1.59212 -0.77783,1.91796 -0.61105,1.05659 -1.48055,2.34891 -1.63758,2.43392 -0.0842,0.0456 -0.36255,0.31691 -0.61847,0.60291 -0.45501,0.50849 -0.45552,0.5268 -0.0232,0.82806 0.51321,0.35764 2.0827,2.90396 2.77192,4.49714 0.26113,0.60364 0.54103,1.14088 0.622,1.19387 0.081,0.0529 0.13053,0.1977 0.11013,0.32161 -0.0204,0.12389 0.15103,0.88396 0.38095,1.68902 0.3936,1.37815 0.98313,4.03951 1.05638,4.76876 0.0182,0.18144 0.0878,0.8742 0.15467,1.53947 0.25192,2.50685 0.38812,3.59179 0.46422,3.69789 0.13681,0.19076 1.42624,0.0468 1.34518,-0.15017 -0.0426,-0.10358 -0.11903,-0.86254 -0.16979,-1.68657 z m 2.79395,-29.63838 c -0.55347,-0.16042 -0.93734,0.20363 -0.81921,0.77689 0.0547,0.26564 0.17232,0.27638 0.73762,0.0674 0.7882,-0.29142 0.82091,-0.63 0.0816,-0.84428 z"
         id="path3040"
         inkscape:connector-curvature="0" />
      <circle
         id="circle3042"
         r="117.656"
         cy="135.146"
         cx="135.23199"
         clip-path="url(#SVGID_6_)"
         sodipodi:cx="135.23199"
         sodipodi:cy="135.146"
         sodipodi:rx="117.656"
         sodipodi:ry="117.656"
         style="fill:none;stroke:#000000;stroke-width:11.73789978"
         d="m 252.88799,135.146 c 0,64.97961 -52.67638,117.65599 -117.656,117.65599 -64.979609,0 -117.655994,-52.67638 -117.655994,-117.65599 0,-64.979617 52.676385,-117.656002 117.655994,-117.656002 64.97962,0 117.656,52.676385 117.656,117.656002 z"
         transform="matrix(0.53034338,0,0,0.53034338,98.287727,76.158585)" />
      <path
         id="path3044"
         d="m 76.342,70.388 c 12.947,-3.775 67.545,3.657 56.389,56.47 -4.06,19.222 -26.338,28.585 -37.132,36.673 -25.562,19.139 -3.549,64.601 -3.549,64.601 0,0 -11.909,-35.361 14.612,-52.091 24.396,-15.392 108.515,-8.158 108.227,-55.632 C 214.338,29.449 72.603,62.261 76.342,70.388"
         clip-path="url(#SVGID_6_)"
         inkscape:connector-curvature="0"
         transform="matrix(0.53034338,0,0,0.53034338,98.287727,76.158585)" />
    </g>
  </g>
</svg>
